<?xml version="1.0" encoding="us-ascii" standalone="no"?><svg xmlns="http://www.w3.org/2000/svg" xmlns:xlink="http://www.w3.org/1999/xlink" contentStyleType="text/css" height="1368px" preserveAspectRatio="none" style="width:789px;height:1368px;background:#FFFFFF;" version="1.1" viewBox="0 0 789 1368" width="789px" zoomAndPan="magnify"><defs/><g><ellipse cx="476.75" cy="20" fill="#222222" rx="10" ry="10" style="stroke:#222222;stroke-width:1.0;"/><rect fill="#F1F1F1" height="35.0938" rx="12.5" ry="12.5" style="stroke:#181818;stroke-width:0.5;" width="251" x="351.25" y="50"/><text fill="#000000" font-family="sans-serif" font-size="12" lengthAdjust="spacing" textLength="231" x="361.25" y="72.457">Inizializza array circolari, costanti e variabili</text><polygon fill="#F1F1F1" points="408.75,166.9297,544.75,166.9297,556.75,178.9297,544.75,190.9297,408.75,190.9297,396.75,178.9297,408.75,166.9297" style="stroke:#181818;stroke-width:0.5;"/><text fill="#000000" font-family="sans-serif" font-size="11" lengthAdjust="spacing" textLength="136" x="408.75" y="183.4307">Evento _is_running &#232; attivo?</text><text fill="#000000" font-family="sans-serif" font-size="11" lengthAdjust="spacing" textLength="9" x="387.75" y="176.5127">S&#236;</text><text fill="#000000" font-family="sans-serif" font-size="11" lengthAdjust="spacing" textLength="13" x="556.75" y="176.5127">No</text><rect fill="#F1F1F1" height="35.0938" rx="12.5" ry="12.5" style="stroke:#181818;stroke-width:0.5;" width="209" x="166.5" y="200.9297"/><text fill="#000000" font-family="sans-serif" font-size="12" lengthAdjust="spacing" textLength="189" x="176.5" y="223.3867">Aquisisci frame dal VideoProducer</text><rect fill="#F1F1F1" height="35.0938" rx="12.5" ry="12.5" style="stroke:#181818;stroke-width:0.5;" width="212" x="165" y="256.0234"/><text fill="#000000" font-family="sans-serif" font-size="12" lengthAdjust="spacing" textLength="192" x="175" y="278.4805">Converti frame in spazio colori HSV</text><rect fill="#F1F1F1" height="35.0938" rx="12.5" ry="12.5" style="stroke:#181818;stroke-width:0.5;" width="185" x="178.5" y="311.1172"/><text fill="#000000" font-family="sans-serif" font-size="12" lengthAdjust="spacing" textLength="165" x="188.5" y="333.5742">Ricava maschera di circolarit&#224;</text><rect fill="#F1F1F1" height="35.0938" rx="12.5" ry="12.5" style="stroke:#181818;stroke-width:0.5;" width="261" x="140.5" y="366.2109"/><text fill="#000000" font-family="sans-serif" font-size="12" lengthAdjust="spacing" textLength="241" x="150.5" y="388.668">Memorizza maschera in balls_mask_history</text><rect fill="#F1F1F1" height="35.0938" rx="12.5" ry="12.5" style="stroke:#181818;stroke-width:0.5;" width="213" x="164.5" y="470.2227"/><text fill="#000000" font-family="sans-serif" font-size="12" lengthAdjust="spacing" textLength="193" x="174.5" y="492.6797">Analisi del movimento sui tre frame</text><rect fill="#F1F1F1" height="35.0938" rx="12.5" ry="12.5" style="stroke:#181818;stroke-width:0.5;" width="282" x="130" y="525.3164"/><text fill="#000000" font-family="sans-serif" font-size="12" lengthAdjust="spacing" textLength="262" x="140" y="547.7734">Memorizza stato di movimento in motion_history</text><polygon fill="#F1F1F1" points="162.5,629.3281,379.5,629.3281,391.5,641.3281,379.5,653.3281,162.5,653.3281,150.5,641.3281,162.5,629.3281" style="stroke:#181818;stroke-width:0.5;"/><text fill="#000000" font-family="sans-serif" font-size="11" lengthAdjust="spacing" textLength="217" x="162.5" y="645.8291">motion_history contiene il 70% di valori True?</text><text fill="#000000" font-family="sans-serif" font-size="11" lengthAdjust="spacing" textLength="9" x="141.5" y="638.9111">S&#236;</text><text fill="#000000" font-family="sans-serif" font-size="11" lengthAdjust="spacing" textLength="13" x="391.5" y="638.9111">No</text><rect fill="#F1F1F1" height="35.0938" rx="12.5" ry="12.5" style="stroke:#181818;stroke-width:0.5;" width="160" x="60.5" y="663.3281"/><text fill="#000000" font-family="sans-serif" font-size="12" lengthAdjust="spacing" textLength="140" x="70.5" y="685.7852">new_motion_state = True</text><rect fill="#F1F1F1" height="35.0938" rx="12.5" ry="12.5" style="stroke:#181818;stroke-width:0.5;" width="166" x="318.5" y="663.3281"/><text fill="#000000" font-family="sans-serif" font-size="12" lengthAdjust="spacing" textLength="146" x="328.5" y="685.7852">new_motion_state = False</text><polygon fill="#F1F1F1" points="271,704.4219,283,716.4219,271,728.4219,259,716.4219,271,704.4219" style="stroke:#181818;stroke-width:0.5;"/><rect fill="#F1F1F1" height="35.0938" rx="12.5" ry="12.5" style="stroke:#181818;stroke-width:0.5;" width="247" x="147.5" y="797.3398"/><text fill="#000000" font-family="sans-serif" font-size="12" lengthAdjust="spacing" textLength="227" x="157.5" y="819.7969">Calcola timestamp corrente: current_time</text><rect fill="#F1F1F1" height="35.0938" rx="12.5" ry="12.5" style="stroke:#181818;stroke-width:0.5;" width="235" x="153.5" y="904.9805"/><text fill="#000000" font-family="sans-serif" font-size="12" lengthAdjust="spacing" textLength="215" x="163.5" y="927.4375">last_state_change_time = current_time</text><rect fill="#F1F1F1" height="35.0938" rx="12.5" ry="12.5" style="stroke:#181818;stroke-width:0.5;" width="231" x="155.5" y="960.0742"/><text fill="#000000" font-family="sans-serif" font-size="12" lengthAdjust="spacing" textLength="211" x="165.5" y="982.5313">old_motion_state = new_motion_state</text><polygon fill="#F1F1F1" points="210.5,1029.6211,331.5,1029.6211,343.5,1041.6211,331.5,1053.6211,210.5,1053.6211,198.5,1041.6211,210.5,1029.6211" style="stroke:#181818;stroke-width:0.5;"/><text fill="#000000" font-family="sans-serif" font-size="11" lengthAdjust="spacing" textLength="121" x="210.5" y="1046.1221">old_motion_state &#232; True?</text><text fill="#000000" font-family="sans-serif" font-size="11" lengthAdjust="spacing" textLength="9" x="189.5" y="1039.2041">S&#236;</text><text fill="#000000" font-family="sans-serif" font-size="11" lengthAdjust="spacing" textLength="13" x="343.5" y="1039.2041">No</text><rect fill="#F1F1F1" height="35.0938" rx="12.5" ry="12.5" style="stroke:#181818;stroke-width:0.5;" width="217" x="44" y="1063.6211"/><text fill="#000000" font-family="sans-serif" font-size="12" lengthAdjust="spacing" textLength="197" x="54" y="1086.0781">Richiama start_movement_callback</text><rect fill="#F1F1F1" height="35.0938" rx="12.5" ry="12.5" style="stroke:#181818;stroke-width:0.5;" width="217" x="281" y="1063.6211"/><text fill="#000000" font-family="sans-serif" font-size="12" lengthAdjust="spacing" textLength="197" x="291" y="1086.0781">Richiama stop_movement_callback</text><polygon fill="#F1F1F1" points="271,1104.7148,283,1116.7148,271,1128.7148,259,1116.7148,271,1104.7148" style="stroke:#181818;stroke-width:0.5;"/><polygon fill="#F1F1F1" points="88.5,856.0625,453.5,856.0625,465.5,868.0625,453.5,880.0625,88.5,880.0625,76.5,868.0625,88.5,856.0625" style="stroke:#181818;stroke-width:0.5;"/><text fill="#000000" font-family="sans-serif" font-size="11" lengthAdjust="spacing" textLength="9" x="275" y="891.4814">S&#236;</text><text fill="#000000" font-family="sans-serif" font-size="11" lengthAdjust="spacing" textLength="365" x="88.5" y="872.5635">(current_time - last_state_change_time) &gt; MIN_STATE_CHANGE_INTERVAL</text><text fill="#000000" font-family="sans-serif" font-size="11" lengthAdjust="spacing" textLength="13" x="465.5" y="865.6455">No</text><polygon fill="#F1F1F1" points="271,1148.7148,283,1160.7148,271,1172.7148,259,1160.7148,271,1148.7148" style="stroke:#181818;stroke-width:0.5;"/><polygon fill="#F1F1F1" points="154.5,748.4219,387.5,748.4219,399.5,760.4219,387.5,772.4219,154.5,772.4219,142.5,760.4219,154.5,748.4219" style="stroke:#181818;stroke-width:0.5;"/><text fill="#000000" font-family="sans-serif" font-size="11" lengthAdjust="spacing" textLength="9" x="275" y="783.8408">S&#236;</text><text fill="#000000" font-family="sans-serif" font-size="11" lengthAdjust="spacing" textLength="233" x="154.5" y="764.9229">new_motion_state diverso da old_motion_state?</text><text fill="#000000" font-family="sans-serif" font-size="11" lengthAdjust="spacing" textLength="13" x="399.5" y="758.0049">No</text><polygon fill="#F1F1F1" points="271,1192.7148,283,1204.7148,271,1216.7148,259,1204.7148,271,1192.7148" style="stroke:#181818;stroke-width:0.5;"/><polygon fill="#F1F1F1" points="121,580.4102,421,580.4102,433,592.4102,421,604.4102,121,604.4102,109,592.4102,121,580.4102" style="stroke:#181818;stroke-width:0.5;"/><text fill="#000000" font-family="sans-serif" font-size="11" lengthAdjust="spacing" textLength="9" x="275" y="615.8291">S&#236;</text><text fill="#000000" font-family="sans-serif" font-size="11" lengthAdjust="spacing" textLength="300" x="121" y="596.9111">motion_history contiene NUMBER_OF_MOTION_COUNT valori?</text><text fill="#000000" font-family="sans-serif" font-size="11" lengthAdjust="spacing" textLength="13" x="433" y="589.9932">No</text><polygon fill="#F1F1F1" points="271,1236.7148,283,1248.7148,271,1260.7148,259,1248.7148,271,1236.7148" style="stroke:#181818;stroke-width:0.5;"/><polygon fill="#F1F1F1" points="171,421.3047,371,421.3047,383,433.3047,371,445.3047,171,445.3047,159,433.3047,171,421.3047" style="stroke:#181818;stroke-width:0.5;"/><text fill="#000000" font-family="sans-serif" font-size="11" lengthAdjust="spacing" textLength="9" x="275" y="456.7236">S&#236;</text><text fill="#000000" font-family="sans-serif" font-size="11" lengthAdjust="spacing" textLength="200" x="171" y="437.8057">balls_mask_history contiene tre elementi?</text><text fill="#000000" font-family="sans-serif" font-size="11" lengthAdjust="spacing" textLength="13" x="383" y="430.8877">No</text><polygon fill="#F1F1F1" points="271,1280.7148,283,1292.7148,271,1304.7148,259,1292.7148,271,1280.7148" style="stroke:#181818;stroke-width:0.5;"/><rect fill="#F1F1F1" height="35.0938" rx="12.5" ry="12.5" style="stroke:#181818;stroke-width:0.5;" width="133" x="616" y="200.9297"/><text fill="#000000" font-family="sans-serif" font-size="12" lengthAdjust="spacing" textLength="113" x="626" y="223.3867">Svuota array circolari</text><polygon fill="#F1F1F1" points="476.75,1310.7148,488.75,1322.7148,476.75,1334.7148,464.75,1322.7148,476.75,1310.7148" style="stroke:#181818;stroke-width:0.5;"/><polygon fill="#F1F1F1" points="332.75,105.0938,620.75,105.0938,632.75,117.0938,620.75,129.0938,332.75,129.0938,320.75,117.0938,332.75,105.0938" style="stroke:#181818;stroke-width:0.5;"/><text fill="#000000" font-family="sans-serif" font-size="11" lengthAdjust="spacing" textLength="9" x="480.75" y="140.5127">S&#236;</text><text fill="#000000" font-family="sans-serif" font-size="11" lengthAdjust="spacing" textLength="288" x="332.75" y="121.5947">VideoProducer &#232; accessibile AND _end_event non &#232; attivo?</text><ellipse cx="24" cy="163.0938" fill="none" rx="10" ry="10" style="stroke:#222222;stroke-width:1.5;"/><line style="stroke:#222222;stroke-width:2.5;" x1="17.8128" x2="30.1872" y1="156.9066" y2="169.2809"/><line style="stroke:#222222;stroke-width:2.5;" x1="30.1872" x2="17.8128" y1="156.9066" y2="169.2809"/><line style="stroke:#181818;stroke-width:1.0;" x1="476.75" x2="476.75" y1="30" y2="50"/><polygon fill="#181818" points="472.75,40,476.75,50,480.75,40,476.75,44" style="stroke:#181818;stroke-width:1.0;"/><line style="stroke:#181818;stroke-width:1.0;" x1="271" x2="271" y1="236.0234" y2="256.0234"/><polygon fill="#181818" points="267,246.0234,271,256.0234,275,246.0234,271,250.0234" style="stroke:#181818;stroke-width:1.0;"/><line style="stroke:#181818;stroke-width:1.0;" x1="271" x2="271" y1="291.1172" y2="311.1172"/><polygon fill="#181818" points="267,301.1172,271,311.1172,275,301.1172,271,305.1172" style="stroke:#181818;stroke-width:1.0;"/><line style="stroke:#181818;stroke-width:1.0;" x1="271" x2="271" y1="346.2109" y2="366.2109"/><polygon fill="#181818" points="267,356.2109,271,366.2109,275,356.2109,271,360.2109" style="stroke:#181818;stroke-width:1.0;"/><line style="stroke:#181818;stroke-width:1.0;" x1="271" x2="271" y1="505.3164" y2="525.3164"/><polygon fill="#181818" points="267,515.3164,271,525.3164,275,515.3164,271,519.3164" style="stroke:#181818;stroke-width:1.0;"/><line style="stroke:#181818;stroke-width:1.0;" x1="150.5" x2="140.5" y1="641.3281" y2="641.3281"/><line style="stroke:#181818;stroke-width:1.0;" x1="140.5" x2="140.5" y1="641.3281" y2="663.3281"/><polygon fill="#181818" points="136.5,653.3281,140.5,663.3281,144.5,653.3281,140.5,657.3281" style="stroke:#181818;stroke-width:1.0;"/><line style="stroke:#181818;stroke-width:1.0;" x1="391.5" x2="401.5" y1="641.3281" y2="641.3281"/><line style="stroke:#181818;stroke-width:1.0;" x1="401.5" x2="401.5" y1="641.3281" y2="663.3281"/><polygon fill="#181818" points="397.5,653.3281,401.5,663.3281,405.5,653.3281,401.5,657.3281" style="stroke:#181818;stroke-width:1.0;"/><line style="stroke:#181818;stroke-width:1.0;" x1="140.5" x2="140.5" y1="698.4219" y2="716.4219"/><line style="stroke:#181818;stroke-width:1.0;" x1="140.5" x2="259" y1="716.4219" y2="716.4219"/><polygon fill="#181818" points="249,712.4219,259,716.4219,249,720.4219,253,716.4219" style="stroke:#181818;stroke-width:1.0;"/><line style="stroke:#181818;stroke-width:1.0;" x1="401.5" x2="401.5" y1="698.4219" y2="716.4219"/><line style="stroke:#181818;stroke-width:1.0;" x1="401.5" x2="283" y1="716.4219" y2="716.4219"/><polygon fill="#181818" points="293,712.4219,283,716.4219,293,720.4219,289,716.4219" style="stroke:#181818;stroke-width:1.0;"/><line style="stroke:#181818;stroke-width:1.0;" x1="271" x2="271" y1="940.0742" y2="960.0742"/><polygon fill="#181818" points="267,950.0742,271,960.0742,275,950.0742,271,954.0742" style="stroke:#181818;stroke-width:1.0;"/><line style="stroke:#181818;stroke-width:1.0;" x1="198.5" x2="152.5" y1="1041.6211" y2="1041.6211"/><line style="stroke:#181818;stroke-width:1.0;" x1="152.5" x2="152.5" y1="1041.6211" y2="1063.6211"/><polygon fill="#181818" points="148.5,1053.6211,152.5,1063.6211,156.5,1053.6211,152.5,1057.6211" style="stroke:#181818;stroke-width:1.0;"/><line style="stroke:#181818;stroke-width:1.0;" x1="343.5" x2="389.5" y1="1041.6211" y2="1041.6211"/><line style="stroke:#181818;stroke-width:1.0;" x1="389.5" x2="389.5" y1="1041.6211" y2="1063.6211"/><polygon fill="#181818" points="385.5,1053.6211,389.5,1063.6211,393.5,1053.6211,389.5,1057.6211" style="stroke:#181818;stroke-width:1.0;"/><line style="stroke:#181818;stroke-width:1.0;" x1="152.5" x2="152.5" y1="1098.7148" y2="1116.7148"/><line style="stroke:#181818;stroke-width:1.0;" x1="152.5" x2="259" y1="1116.7148" y2="1116.7148"/><polygon fill="#181818" points="249,1112.7148,259,1116.7148,249,1120.7148,253,1116.7148" style="stroke:#181818;stroke-width:1.0;"/><line style="stroke:#181818;stroke-width:1.0;" x1="389.5" x2="389.5" y1="1098.7148" y2="1116.7148"/><line style="stroke:#181818;stroke-width:1.0;" x1="389.5" x2="283" y1="1116.7148" y2="1116.7148"/><polygon fill="#181818" points="293,1112.7148,283,1116.7148,293,1120.7148,289,1116.7148" style="stroke:#181818;stroke-width:1.0;"/><line style="stroke:#181818;stroke-width:1.0;" x1="271" x2="271" y1="995.168" y2="1029.6211"/><polygon fill="#181818" points="267,1019.6211,271,1029.6211,275,1019.6211,271,1023.6211" style="stroke:#181818;stroke-width:1.0;"/><line style="stroke:#181818;stroke-width:1.0;" x1="271" x2="271" y1="880.0625" y2="904.9805"/><polygon fill="#181818" points="267,894.9805,271,904.9805,275,894.9805,271,898.9805" style="stroke:#181818;stroke-width:1.0;"/><line style="stroke:#181818;stroke-width:1.0;" x1="465.5" x2="518" y1="868.0625" y2="868.0625"/><polygon fill="#181818" points="514,999.6211,518,1009.6211,522,999.6211,518,1003.6211" style="stroke:#181818;stroke-width:1.0;"/><line style="stroke:#181818;stroke-width:1.0;" x1="518" x2="518" y1="868.0625" y2="1160.7148"/><line style="stroke:#181818;stroke-width:1.0;" x1="518" x2="283" y1="1160.7148" y2="1160.7148"/><polygon fill="#181818" points="293,1156.7148,283,1160.7148,293,1164.7148,289,1160.7148" style="stroke:#181818;stroke-width:1.0;"/><line style="stroke:#181818;stroke-width:1.0;" x1="271" x2="271" y1="1128.7148" y2="1148.7148"/><polygon fill="#181818" points="267,1138.7148,271,1148.7148,275,1138.7148,271,1142.7148" style="stroke:#181818;stroke-width:1.0;"/><line style="stroke:#181818;stroke-width:1.0;" x1="271" x2="271" y1="832.4336" y2="856.0625"/><polygon fill="#181818" points="267,846.0625,271,856.0625,275,846.0625,271,850.0625" style="stroke:#181818;stroke-width:1.0;"/><line style="stroke:#181818;stroke-width:1.0;" x1="271" x2="271" y1="772.4219" y2="797.3398"/><polygon fill="#181818" points="267,787.3398,271,797.3398,275,787.3398,271,791.3398" style="stroke:#181818;stroke-width:1.0;"/><line style="stroke:#181818;stroke-width:1.0;" x1="399.5" x2="540" y1="760.4219" y2="760.4219"/><polygon fill="#181818" points="536,964.5742,540,974.5742,544,964.5742,540,968.5742" style="stroke:#181818;stroke-width:1.0;"/><line style="stroke:#181818;stroke-width:1.0;" x1="540" x2="540" y1="760.4219" y2="1204.7148"/><line style="stroke:#181818;stroke-width:1.0;" x1="540" x2="283" y1="1204.7148" y2="1204.7148"/><polygon fill="#181818" points="293,1200.7148,283,1204.7148,293,1208.7148,289,1204.7148" style="stroke:#181818;stroke-width:1.0;"/><line style="stroke:#181818;stroke-width:1.0;" x1="271" x2="271" y1="1172.7148" y2="1192.7148"/><polygon fill="#181818" points="267,1182.7148,271,1192.7148,275,1182.7148,271,1186.7148" style="stroke:#181818;stroke-width:1.0;"/><line style="stroke:#181818;stroke-width:1.0;" x1="271" x2="271" y1="728.4219" y2="748.4219"/><polygon fill="#181818" points="267,738.4219,271,748.4219,275,738.4219,271,742.4219" style="stroke:#181818;stroke-width:1.0;"/><line style="stroke:#181818;stroke-width:1.0;" x1="271" x2="271" y1="604.4102" y2="629.3281"/><polygon fill="#181818" points="267,619.3281,271,629.3281,275,619.3281,271,623.3281" style="stroke:#181818;stroke-width:1.0;"/><line style="stroke:#181818;stroke-width:1.0;" x1="433" x2="562" y1="592.4102" y2="592.4102"/><polygon fill="#181818" points="558,912.5273,562,922.5273,566,912.5273,562,916.5273" style="stroke:#181818;stroke-width:1.0;"/><line style="stroke:#181818;stroke-width:1.0;" x1="562" x2="562" y1="592.4102" y2="1248.7148"/><line style="stroke:#181818;stroke-width:1.0;" x1="562" x2="283" y1="1248.7148" y2="1248.7148"/><polygon fill="#181818" points="293,1244.7148,283,1248.7148,293,1252.7148,289,1248.7148" style="stroke:#181818;stroke-width:1.0;"/><line style="stroke:#181818;stroke-width:1.0;" x1="271" x2="271" y1="1216.7148" y2="1236.7148"/><polygon fill="#181818" points="267,1226.7148,271,1236.7148,275,1226.7148,271,1230.7148" style="stroke:#181818;stroke-width:1.0;"/><line style="stroke:#181818;stroke-width:1.0;" x1="271" x2="271" y1="560.4102" y2="580.4102"/><polygon fill="#181818" points="267,570.4102,271,580.4102,275,570.4102,271,574.4102" style="stroke:#181818;stroke-width:1.0;"/><line style="stroke:#181818;stroke-width:1.0;" x1="271" x2="271" y1="445.3047" y2="470.2227"/><polygon fill="#181818" points="267,460.2227,271,470.2227,275,460.2227,271,464.2227" style="stroke:#181818;stroke-width:1.0;"/><line style="stroke:#181818;stroke-width:1.0;" x1="383" x2="584" y1="433.3047" y2="433.3047"/><polygon fill="#181818" points="580,842.4336,584,852.4336,588,842.4336,584,846.4336" style="stroke:#181818;stroke-width:1.0;"/><line style="stroke:#181818;stroke-width:1.0;" x1="584" x2="584" y1="433.3047" y2="1292.7148"/><line style="stroke:#181818;stroke-width:1.0;" x1="584" x2="283" y1="1292.7148" y2="1292.7148"/><polygon fill="#181818" points="293,1288.7148,283,1292.7148,293,1296.7148,289,1292.7148" style="stroke:#181818;stroke-width:1.0;"/><line style="stroke:#181818;stroke-width:1.0;" x1="271" x2="271" y1="1260.7148" y2="1280.7148"/><polygon fill="#181818" points="267,1270.7148,271,1280.7148,275,1270.7148,271,1274.7148" style="stroke:#181818;stroke-width:1.0;"/><line style="stroke:#181818;stroke-width:1.0;" x1="271" x2="271" y1="401.3047" y2="421.3047"/><polygon fill="#181818" points="267,411.3047,271,421.3047,275,411.3047,271,415.3047" style="stroke:#181818;stroke-width:1.0;"/><line style="stroke:#181818;stroke-width:1.0;" x1="396.75" x2="271" y1="178.9297" y2="178.9297"/><line style="stroke:#181818;stroke-width:1.0;" x1="271" x2="271" y1="178.9297" y2="200.9297"/><polygon fill="#181818" points="267,190.9297,271,200.9297,275,190.9297,271,194.9297" style="stroke:#181818;stroke-width:1.0;"/><line style="stroke:#181818;stroke-width:1.0;" x1="556.75" x2="682.5" y1="178.9297" y2="178.9297"/><line style="stroke:#181818;stroke-width:1.0;" x1="682.5" x2="682.5" y1="178.9297" y2="200.9297"/><polygon fill="#181818" points="678.5,190.9297,682.5,200.9297,686.5,190.9297,682.5,194.9297" style="stroke:#181818;stroke-width:1.0;"/><line style="stroke:#181818;stroke-width:1.0;" x1="271" x2="271" y1="1304.7148" y2="1322.7148"/><line style="stroke:#181818;stroke-width:1.0;" x1="271" x2="464.75" y1="1322.7148" y2="1322.7148"/><polygon fill="#181818" points="454.75,1318.7148,464.75,1322.7148,454.75,1326.7148,458.75,1322.7148" style="stroke:#181818;stroke-width:1.0;"/><line style="stroke:#181818;stroke-width:1.0;" x1="682.5" x2="682.5" y1="236.0234" y2="1322.7148"/><line style="stroke:#181818;stroke-width:1.0;" x1="682.5" x2="488.75" y1="1322.7148" y2="1322.7148"/><polygon fill="#181818" points="498.75,1318.7148,488.75,1322.7148,498.75,1326.7148,494.75,1322.7148" style="stroke:#181818;stroke-width:1.0;"/><line style="stroke:#181818;stroke-width:1.0;" x1="476.75" x2="476.75" y1="129.0938" y2="166.9297"/><polygon fill="#181818" points="472.75,156.9297,476.75,166.9297,480.75,156.9297,476.75,160.9297" style="stroke:#181818;stroke-width:1.0;"/><line style="stroke:#181818;stroke-width:1.0;" x1="476.75" x2="476.75" y1="1334.7148" y2="1344.7148"/><line style="stroke:#181818;stroke-width:1.0;" x1="476.75" x2="763" y1="1344.7148" y2="1344.7148"/><polygon fill="#181818" points="759,727.6992,763,717.6992,767,727.6992,763,723.6992" style="stroke:#181818;stroke-width:1.0;"/><line style="stroke:#181818;stroke-width:1.0;" x1="763" x2="763" y1="117.0938" y2="1344.7148"/><line style="stroke:#181818;stroke-width:1.0;" x1="763" x2="632.75" y1="117.0938" y2="117.0938"/><polygon fill="#181818" points="642.75,113.0938,632.75,117.0938,642.75,121.0938,638.75,117.0938" style="stroke:#181818;stroke-width:1.0;"/><line style="stroke:#181818;stroke-width:1.0;" x1="320.75" x2="24" y1="117.0938" y2="117.0938"/><line style="stroke:#181818;stroke-width:1.0;" x1="24" x2="24" y1="117.0938" y2="153.0938"/><polygon fill="#181818" points="20,143.0938,24,153.0938,28,143.0938,24,147.0938" style="stroke:#181818;stroke-width:1.0;"/><line style="stroke:#181818;stroke-width:1.0;" x1="476.75" x2="476.75" y1="85.0938" y2="105.0938"/><polygon fill="#181818" points="472.75,95.0938,476.75,105.0938,480.75,95.0938,476.75,99.0938" style="stroke:#181818;stroke-width:1.0;"/><!--SRC=[bLL1Rjim4Bpx5Nifu00jq5i16stXk4vZe9QBsF6LeAbDl0X5fYIb87vDZptq5_bObtHJMP4Skpe8WdPcEBDSIZv85tg3gQ4jIKtRhGJfd7m4HKvPBHsz1MLza2OG85JyGgv9qx3ti26Dq5zHZlQxitcfqC7JBv1AeVUqZjLHzWK4cbnWXIQ0iIOXGg3AVZu3yj1VFFq-wm5VT0FzIOHP4EI5AuqXSzl0XmsQFKQy1gCV9NdoYk36oG8XbneQdeOrTcnDXIuyGyc0lvTRifnGMqTmkLZjeQz8oKf28RtQe9EGKzsKyFHp3pd3WkcnT__0hBsMMdl1R-x4Xdomxh6cnB3jEllWDgD120u1DHRS3keElWjlUCyyGOuQ2bjHaThdIqe2AUMmoQYjyfuobaFLH3PTs43Mj0q_csxMQyFPzUnySYNc5s8sNqxdcHZFhxCbpqjixE44nsH9muVtRwBBdH8iNOclowMO1X_4NysO4-5ZOWvRQDIUXpYpf-jSIAPq29cSRZgpjJHouYdqt7i9LkUDsWdHnbB76OJ0cyQSufwxvHpl7mv0bUb9nDgmanuDzVTXy0wqz66tl50RQMun5SxW4yoccLWiHyk965-EigyJCSsMawlLwDjHcybgjp3tyBZFn7_P7MQ-REPXTapQ4k2loMaJjFyLs90iqdbnWTMgT2g5ujExbkhki87NHwjh0Nl_N_gT4tTyvMxUOKuRturjujgOkjwk3HPLQKFhtxCBloFoFVrouiCV]--></g></svg>